<svg xmlns="http://www.w3.org/2000/svg" xmlns:xlink="http://www.w3.org/1999/xlink" width="500" zoomAndPan="magnify" viewBox="0 0 375 374.999991" height="500" preserveAspectRatio="xMidYMid meet" version="1.0"><defs><clipPath id="8bf907bb3a"><path d="M 75 76.546875 L 298 76.546875 L 298 298.546875 L 75 298.546875 Z M 75 76.546875 " clip-rule="nonzero"/></clipPath></defs><g clip-path="url(#8bf907bb3a)"><path fill="#000000" d="M 137.695312 76.679688 C 137.40625 76.679688 137.117188 76.691406 136.828125 76.738281 C 134.558594 77.078125 132.558594 78.777344 132.125 81.273438 L 131.257812 86.242188 L 128.832031 81.179688 C 127.375 78.140625 123.671875 77.125 120.902344 78.683594 L 117.007812 80.863281 C 114.234375 82.433594 113.304688 86.183594 115.210938 88.910156 L 120.527344 96.59375 C 115.609375 97.75 111.386719 101.390625 110.484375 106.722656 L 103.3125 149.550781 C 99.34375 148.359375 96.667969 147.9375 96.667969 147.9375 C 96.511719 147.910156 96.355469 147.886719 96.199219 147.886719 C 95.679688 147.898438 95.171875 148.09375 94.777344 148.429688 C 94.777344 148.429688 88.578125 153.605469 83.140625 161.636719 C 78.863281 167.980469 74.917969 176.265625 75.015625 185.3125 C 75.015625 185.398438 75.003906 185.480469 75.003906 185.578125 C 75.003906 186.109375 75.027344 186.640625 75.0625 187.171875 C 75.015625 187.351562 75.003906 187.53125 75.003906 187.703125 C 75.003906 249.007812 124.746094 298.746094 186.0625 298.746094 C 247.332031 298.746094 299.929688 249.925781 297.109375 180.113281 C 297.109375 180.066406 297.109375 180.019531 297.097656 179.96875 C 297.109375 173.082031 292.492188 166.269531 285.679688 163.421875 C 285.933594 162.203125 286.101562 160.972656 286.101562 159.730469 L 286.101562 159.71875 C 286.089844 151.832031 280.917969 144.980469 273.527344 142.496094 C 273.660156 141.617188 273.902344 140.746094 273.902344 139.84375 C 273.878906 129.796875 265.609375 121.617188 255.492188 121.59375 C 249.550781 121.582031 244.113281 124.539062 240.6875 129.277344 C 239.375 128.976562 238.035156 128.769531 236.6875 128.769531 L 236.671875 128.769531 C 230.863281 128.746094 225.691406 131.460938 222.351562 135.671875 C 216.046875 129.734375 207.546875 126.09375 198.214844 126.09375 C 187.945312 126.09375 178.695312 130.507812 172.246094 137.539062 C 172.199219 137.539062 172.136719 137.539062 172.089844 137.539062 C 171.175781 137.585938 170.257812 137.648438 169.351562 137.707031 C 168.4375 137.769531 167.53125 137.828125 166.640625 137.890625 C 166.4375 137.914062 166.242188 137.949219 166.050781 138.023438 C 165.289062 135.898438 163.808594 134.03125 161.734375 132.824219 C 160.566406 132.148438 159.3125 131.75 158.058594 131.59375 C 154.269531 131.121094 150.378906 132.882812 148.363281 136.382812 C 147.664062 137.585938 147.265625 138.878906 147.132812 140.179688 C 146.316406 140.3125 145.507812 140.445312 144.699219 140.589844 L 152.753906 117.941406 C 154.546875 112.886719 152.777344 107.652344 149.113281 104.203125 L 157.585938 100.210938 C 160.589844 98.789062 161.6875 95.085938 160.058594 92.335938 L 157.792969 88.511719 C 156.164062 85.773438 152.449219 84.820312 149.667969 86.726562 L 146 89.222656 L 147.375 85.304688 C 148.472656 82.15625 146.566406 78.828125 143.492188 78.007812 L 139.140625 76.847656 C 138.660156 76.726562 138.175781 76.65625 137.695312 76.65625 Z M 137.753906 81.3125 C 137.828125 81.3125 137.886719 81.3125 137.949219 81.324219 L 142.289062 82.480469 C 142.792969 82.613281 143.203125 83.203125 143 83.785156 L 139.308594 94.359375 C 138.574219 96.472656 140.949219 98.292969 142.792969 97.027344 L 152.269531 90.550781 C 152.777344 90.199219 153.570312 90.488281 153.800781 90.886719 L 156.066406 94.710938 C 156.296875 95.097656 156.210938 95.746094 155.597656 96.039062 L 144.492188 101.273438 C 143.988281 101.066406 143.457031 100.898438 142.925781 100.753906 C 142.914062 100.742188 142.902344 100.742188 142.890625 100.742188 L 127.652344 96.675781 C 127.097656 96.53125 126.53125 96.410156 125.976562 96.339844 L 118.996094 86.28125 C 118.609375 85.726562 118.863281 85.121094 119.273438 84.894531 L 123.15625 82.710938 C 123.566406 82.492188 124.386719 82.636719 124.648438 83.179688 L 130.195312 94.757812 C 131.160156 96.785156 134.175781 96.375 134.558594 94.15625 L 136.667969 82.070312 C 136.753906 81.589844 137.285156 81.273438 137.742188 81.300781 Z M 124.070312 100.824219 C 124.238281 100.824219 124.421875 100.835938 124.589844 100.835938 C 124.675781 100.851562 124.746094 100.863281 124.832031 100.863281 C 124.9375 100.863281 125.046875 100.875 125.15625 100.898438 C 125.230469 100.910156 125.300781 100.921875 125.386719 100.945312 C 125.492188 100.957031 125.613281 100.996094 125.734375 101.007812 C 125.796875 101.019531 125.867188 101.03125 125.929688 101.054688 C 126.109375 101.089844 126.289062 101.128906 126.46875 101.175781 L 141.695312 105.238281 C 142.238281 105.386719 142.757812 105.578125 143.253906 105.792969 C 143.335938 105.84375 143.433594 105.878906 143.515625 105.914062 C 147.496094 107.882812 149.835938 112.34375 148.375 116.433594 L 146.84375 120.761719 L 125.421875 115.046875 C 125.203125 114.984375 124.976562 114.972656 124.734375 114.972656 C 122.046875 115.035156 121.625 118.867188 124.238281 119.519531 L 145.289062 125.140625 L 133.886719 157.222656 L 126.675781 155.292969 C 126.457031 155.234375 126.230469 155.222656 125.988281 155.222656 C 123.300781 155.28125 122.878906 159.117188 125.492188 159.78125 L 132.328125 161.601562 L 130.375 167.125 C 124.433594 158.753906 115.089844 153.847656 107.734375 151.097656 L 110.449219 134.945312 C 110.53125 134.984375 110.617188 135.007812 110.703125 135.019531 L 132.800781 140.917969 C 135.789062 141.726562 136.996094 137.226562 133.992188 136.441406 L 111.894531 130.554688 C 111.679688 130.484375 111.449219 130.472656 111.207031 130.472656 L 115.054688 107.519531 C 115.742188 103.441406 119.730469 100.777344 124.070312 100.851562 Z M 255.480469 126.238281 L 255.480469 126.25 C 263.113281 126.261719 269.25 132.351562 269.273438 139.867188 C 269.273438 141.109375 269.09375 142.339844 268.753906 143.535156 C 268.394531 144.824219 269.199219 146.152344 270.515625 146.429688 C 276.90625 147.765625 281.460938 153.328125 281.472656 159.753906 C 281.472656 161.238281 281.230469 162.722656 280.738281 164.121094 C 280.304688 165.386719 281.027344 166.761719 282.316406 167.113281 C 288.175781 168.71875 292.566406 174.941406 292.46875 180.175781 C 292.46875 180.1875 292.46875 180.210938 292.46875 180.234375 C 292.410156 183.273438 291.769531 185.6875 290.128906 187.820312 C 288.488281 189.980469 285.707031 191.957031 281.003906 193.625 C 279.519531 194.152344 278.988281 195.976562 279.953125 197.21875 C 280.414062 197.820312 280.824219 198.449219 281.171875 199.097656 C 281.535156 199.75 281.835938 200.425781 282.078125 201.125 C 282.246094 201.621094 282.378906 202.113281 282.484375 202.621094 C 277.398438 207.722656 270.480469 212.195312 262.003906 215.996094 C 253.867188 219.640625 244.351562 222.59375 233.839844 224.789062 L 237.09375 212.621094 L 269.238281 206.445312 C 272.058594 205.9375 271.625 201.765625 268.753906 201.859375 C 268.621094 201.859375 268.488281 201.871094 268.367188 201.898438 L 238.421875 207.648438 L 240.496094 199.894531 L 245.148438 182.539062 L 277.3125 176.375 C 280.148438 175.882812 279.703125 171.683594 276.832031 171.78125 C 276.699219 171.792969 276.566406 171.804688 276.433594 171.828125 L 246.488281 177.570312 L 247.691406 173.082031 L 254.890625 146.285156 C 255.3125 144.75 254.117188 143.257812 252.539062 143.339844 C 251.527344 143.402344 250.660156 144.101562 250.417969 145.089844 L 243.21875 171.890625 L 242.027344 176.351562 L 219.023438 156.476562 C 218.613281 156.113281 218.082031 155.894531 217.539062 155.882812 C 215.359375 155.824219 214.320312 158.5625 215.996094 159.972656 L 240.6875 181.308594 L 236.023438 198.699219 L 233.960938 206.421875 L 210.945312 186.542969 C 210.535156 186.179688 210.019531 185.964844 209.476562 185.953125 C 207.28125 185.890625 206.246094 188.628906 207.921875 190.042969 L 232.621094 211.390625 L 228.777344 225.765625 C 224.617188 226.527344 220.300781 227.164062 215.878906 227.683594 C 218.347656 223.339844 219.625 218.589844 219.433594 213.824219 C 219.421875 213.621094 219.410156 213.414062 219.398438 213.210938 C 219.386719 212.992188 219.363281 212.789062 219.347656 212.582031 C 219.324219 212.378906 219.300781 212.160156 219.277344 211.957031 C 219.230469 211.546875 219.15625 211.125 219.085938 210.714844 C 218.9375 209.882812 218.734375 209.050781 218.492188 208.21875 C 216.515625 201.632812 211.476562 195.480469 203.183594 190.679688 C 201.890625 189.933594 200.566406 189.234375 199.191406 188.59375 C 200.070312 184.515625 202.710938 181.019531 206.558594 179.199219 C 206.582031 179.1875 206.605469 179.1875 206.640625 179.148438 C 206.726562 179.113281 206.8125 179.078125 206.894531 179.03125 C 206.992188 178.992188 207.089844 178.957031 207.183594 178.910156 C 207.195312 178.898438 207.210938 178.898438 207.234375 178.898438 C 207.269531 178.871094 207.316406 178.847656 207.367188 178.824219 C 207.511719 178.765625 207.644531 178.726562 207.789062 178.667969 C 207.824219 178.65625 207.847656 178.644531 207.882812 178.644531 L 212.789062 176.941406 L 208.246094 174.445312 C 208.246094 174.445312 208.246094 174.433594 208.234375 174.433594 C 208.101562 174.351562 207.96875 174.289062 207.835938 174.203125 C 207.691406 174.121094 207.558594 174.035156 207.4375 173.964844 C 207.039062 173.710938 206.667969 173.433594 206.304688 173.15625 C 206.183594 173.046875 206.0625 172.976562 205.957031 172.867188 C 205.835938 172.757812 205.726562 172.660156 205.605469 172.566406 C 205.386719 172.359375 205.160156 172.140625 204.953125 171.925781 C 204.640625 171.601562 204.339844 171.261719 204.0625 170.914062 C 203.964844 170.792969 203.882812 170.671875 203.785156 170.550781 C 203.605469 170.308594 203.433594 170.066406 203.277344 169.816406 C 203.242188 169.765625 203.21875 169.707031 203.183594 169.671875 C 203.132812 169.585938 203.085938 169.5 203.039062 169.429688 C 202.964844 169.308594 202.894531 169.175781 202.808594 169.042969 C 202.785156 168.984375 202.75 168.921875 202.710938 168.835938 C 202.53125 168.511719 202.375 168.175781 202.21875 167.824219 C 202.183594 167.753906 202.144531 167.667969 202.121094 167.582031 C 202.097656 167.523438 202.074219 167.460938 202.050781 167.414062 C 202 167.269531 201.941406 167.136719 201.890625 166.992188 C 201.796875 166.714844 201.699219 166.425781 201.613281 166.136719 C 201.542969 165.847656 201.46875 165.558594 201.410156 165.269531 C 201.375 165.121094 201.351562 164.964844 201.3125 164.820312 C 201.265625 164.519531 201.230469 164.21875 201.191406 163.917969 C 201.191406 163.90625 201.191406 163.894531 201.191406 163.867188 C 201.144531 163.433594 201.121094 162.976562 201.121094 162.53125 C 201.121094 161.832031 201.167969 161.144531 201.265625 160.46875 C 201.277344 160.394531 201.300781 160.3125 201.3125 160.226562 C 201.335938 160.082031 201.363281 159.949219 201.386719 159.804688 C 201.410156 159.683594 201.433594 159.585938 201.457031 159.464844 C 201.496094 159.371094 201.507812 159.261719 201.53125 159.164062 C 201.566406 159.019531 201.601562 158.898438 201.640625 158.765625 C 201.675781 158.683594 201.6875 158.597656 201.710938 158.527344 C 201.746094 158.394531 201.796875 158.273438 201.84375 158.140625 C 201.867188 158.066406 201.890625 157.984375 201.929688 157.886719 C 201.976562 157.789062 202.011719 157.667969 202.0625 157.5625 C 202.097656 157.453125 202.132812 157.367188 202.167969 157.269531 C 202.230469 157.136719 202.289062 157.007812 202.351562 156.875 C 202.375 156.8125 202.398438 156.742188 202.433594 156.679688 C 202.496094 156.535156 202.578125 156.378906 202.664062 156.234375 C 202.6875 156.1875 202.699219 156.148438 202.722656 156.113281 C 202.820312 155.945312 202.90625 155.800781 203 155.644531 C 203.011719 155.617188 203.039062 155.582031 203.050781 155.558594 C 203.144531 155.402344 203.253906 155.234375 203.351562 155.078125 C 203.375 155.0625 203.375 155.039062 203.398438 155.015625 C 203.507812 154.859375 203.617188 154.703125 203.738281 154.546875 C 203.75 154.535156 203.761719 154.496094 203.773438 154.484375 C 206.207031 151.203125 210.113281 149.070312 214.5625 148.996094 L 214.863281 148.996094 C 215.058594 148.996094 215.261719 149.007812 215.457031 149.023438 C 215.671875 149.023438 215.890625 149.035156 216.105469 149.058594 C 216.949219 149.140625 217.792969 149.300781 218.613281 149.539062 C 218.832031 149.601562 219.035156 149.660156 219.230469 149.722656 C 219.433594 149.792969 219.640625 149.867188 219.832031 149.949219 L 223.21875 151.277344 L 222.988281 147.648438 C 222.976562 147.527344 222.964844 147.394531 222.964844 147.273438 C 222.964844 147.152344 222.964844 147.042969 222.964844 146.933594 C 222.964844 146.730469 222.964844 146.535156 222.976562 146.332031 C 222.976562 146.273438 222.976562 146.210938 222.976562 146.152344 C 222.988281 145.96875 223.003906 145.777344 223.027344 145.585938 C 223.027344 145.523438 223.039062 145.488281 223.039062 145.414062 C 223.0625 145.28125 223.074219 145.136719 223.097656 145.003906 C 223.097656 144.933594 223.109375 144.835938 223.136719 144.777344 C 223.160156 144.632812 223.183594 144.472656 223.207031 144.328125 C 223.230469 144.195312 223.253906 144.078125 223.292969 143.945312 C 223.292969 143.933594 223.304688 143.882812 223.304688 143.871094 C 223.59375 142.640625 224.050781 141.472656 224.652344 140.398438 L 224.957031 139.855469 C 227.34375 135.972656 231.671875 133.390625 236.648438 133.402344 C 238.085938 133.414062 239.507812 133.644531 240.871094 134.078125 C 241.917969 134.414062 243.039062 133.980469 243.59375 133.039062 C 246.015625 128.832031 250.550781 126.226562 255.480469 126.238281 Z M 198.214844 130.738281 C 206.726562 130.738281 214.320312 134.28125 219.867188 139.867188 C 219.203125 141.410156 218.757812 143.0625 218.554688 144.789062 C 217.554688 144.582031 216.550781 144.4375 215.539062 144.390625 C 211.535156 140.3125 206.195312 137.636719 200.53125 137.082031 L 198.214844 137.082031 C 184.84375 137.082031 173.972656 147.960938 173.972656 161.324219 C 173.972656 173.664062 183.242188 183.890625 195.1875 185.375 C 195.03125 185.820312 194.886719 186.265625 194.765625 186.722656 C 188.882812 184.542969 182.640625 183.285156 176.78125 183.128906 C 176.71875 183.070312 176.648438 183.007812 176.585938 182.949219 C 175.199219 181.5625 173.945312 180.042969 172.851562 178.414062 C 172.765625 178.292969 172.703125 178.171875 172.621094 178.050781 L 175.488281 177.28125 L 175.066406 175.15625 C 175.042969 175.023438 175.007812 174.890625 174.972656 174.746094 C 174.949219 174.613281 174.910156 174.480469 174.875 174.351562 C 174.816406 174.132812 174.753906 173.914062 174.683594 173.699219 C 174.671875 173.675781 174.671875 173.648438 174.65625 173.636719 C 173.523438 170.175781 171.089844 167.390625 167.980469 165.507812 C 167.785156 164.132812 167.617188 162.746094 167.617188 161.324219 C 167.617188 144.414062 181.289062 130.75 198.214844 130.75 Z M 156.707031 136.140625 C 156.949219 136.140625 157.199219 136.152344 157.453125 136.175781 C 158.117188 136.261719 158.78125 136.488281 159.40625 136.851562 C 161.914062 138.300781 162.757812 141.433594 161.335938 143.90625 C 159.902344 146.378906 156.804688 147.210938 154.296875 145.765625 C 151.789062 144.316406 150.945312 141.183594 152.367188 138.710938 C 153.308594 137.082031 154.96875 136.164062 156.707031 136.140625 Z M 195.902344 141.84375 L 195.902344 155.738281 L 186.0625 145.898438 C 188.835938 143.714844 192.210938 142.265625 195.902344 141.84375 Z M 200.53125 141.84375 C 203.6875 142.242188 206.691406 143.402344 209.308594 145.199219 C 205.808594 146.296875 202.773438 148.394531 200.53125 151.15625 Z M 168.507812 142.425781 C 165.023438 147.886719 163 154.375 163 161.324219 C 163 162.023438 163.023438 162.722656 163.074219 163.421875 C 162.519531 163.277344 161.949219 163.144531 161.371094 163.035156 C 161.613281 158.886719 159.515625 154.824219 155.800781 152.664062 C 153.945312 151.589844 151.824219 151.070312 149.679688 151.167969 C 145.878906 151.324219 142.433594 153.421875 140.527344 156.714844 C 138.816406 159.71875 138.609375 163.289062 139.851562 166.402344 C 138.054688 166.90625 136.367188 167.59375 134.8125 168.414062 L 142.914062 145.632812 C 143.324219 145.546875 143.734375 145.488281 144.144531 145.402344 C 145.324219 145.1875 146.53125 144.980469 147.738281 144.789062 C 148.519531 146.8125 149.96875 148.597656 151.980469 149.757812 C 156.632812 152.457031 162.664062 150.867188 165.351562 146.210938 C 166.015625 145.042969 166.421875 143.785156 166.570312 142.519531 C 166.714844 142.542969 166.847656 142.542969 166.992188 142.53125 C 167.496094 142.484375 168.003906 142.449219 168.523438 142.425781 Z M 182.796875 149.167969 L 192.632812 159.007812 L 178.734375 159.007812 C 179.167969 155.316406 180.613281 151.941406 182.796875 149.167969 Z M 99.511719 153.386719 C 106.070312 155.148438 122.128906 160.601562 128.628906 173.226562 C 128.230469 173.664062 127.855469 174.121094 127.507812 174.578125 C 125.035156 177.882812 123.734375 181.886719 124.203125 185.878906 C 124.023438 185.988281 123.855469 186.132812 123.710938 186.289062 L 111.714844 198.917969 L 110.519531 194.492188 L 107.058594 181.574219 L 117.523438 171.539062 C 119.066406 170.09375 118.042969 167.511719 115.933594 167.535156 C 115.332031 167.535156 114.753906 167.777344 114.332031 168.199219 L 105.699219 176.472656 L 104.769531 173.023438 Z M 95.027344 154.535156 L 100.296875 174.230469 L 101.261719 177.800781 L 89.652344 175.050781 C 89.433594 174.988281 89.195312 174.964844 88.964844 174.988281 C 86.277344 175.132812 85.949219 178.980469 88.589844 179.558594 L 102.625 182.875 L 106.046875 195.6875 L 107.253906 200.160156 L 90.832031 195.46875 C 90.617188 195.410156 90.386719 195.359375 90.144531 195.359375 C 87.457031 195.382812 86.964844 199.207031 89.554688 199.90625 L 108.640625 205.371094 L 111.691406 216.71875 C 111.148438 216.503906 110.605469 216.285156 110.0625 216.058594 C 100.417969 211.96875 92.703125 207.121094 87.492188 201.898438 C 83.371094 197.773438 80.851562 193.476562 79.972656 189.089844 C 78.488281 179.921875 82.347656 171.09375 86.976562 164.242188 C 90.027344 159.730469 93.0625 156.449219 95.027344 154.535156 Z M 150.351562 155.777344 C 151.4375 155.800781 152.523438 156.113281 153.476562 156.667969 L 153.464844 156.667969 C 155.644531 157.921875 156.792969 160.25 156.683594 162.652344 C 154.667969 162.6875 152.609375 162.964844 150.546875 163.519531 L 144.421875 165.160156 C 143.457031 163.21875 143.433594 160.9375 144.542969 159.019531 L 144.542969 159.03125 C 145.640625 157.101562 147.652344 155.882812 149.882812 155.789062 C 150.039062 155.777344 150.195312 155.777344 150.351562 155.777344 Z M 178.734375 163.640625 L 192.632812 163.640625 L 182.808594 173.457031 C 180.613281 170.695312 179.167969 167.332031 178.734375 163.640625 Z M 195.902344 166.90625 L 195.902344 180.753906 C 192.222656 180.320312 188.847656 178.882812 186.085938 176.714844 Z M 157.175781 167.28125 C 157.308594 167.28125 157.441406 167.28125 157.5625 167.28125 C 157.707031 167.28125 157.839844 167.292969 157.972656 167.292969 C 158.09375 167.304688 158.226562 167.304688 158.359375 167.316406 C 160.371094 167.4375 162.253906 167.886719 163.890625 168.597656 C 164.074219 168.667969 164.242188 168.730469 164.410156 168.824219 L 164.746094 168.996094 C 165.039062 169.140625 165.316406 169.296875 165.578125 169.453125 C 165.605469 169.464844 165.617188 169.476562 165.628906 169.476562 C 165.738281 169.539062 165.84375 169.609375 165.953125 169.683594 C 166.015625 169.71875 166.085938 169.753906 166.160156 169.828125 C 166.207031 169.863281 166.253906 169.886719 166.304688 169.921875 C 167.859375 171.019531 169.027344 172.40625 169.789062 174.011719 L 133.078125 183.855469 L 128.882812 184.976562 C 128.59375 181.621094 130.015625 178.160156 133.039062 175.316406 C 135.1875 173.300781 138.066406 171.648438 141.433594 170.742188 L 143.925781 170.082031 L 143.941406 170.082031 L 151.738281 167.980469 C 152.027344 167.910156 152.320312 167.835938 152.59375 167.777344 C 152.679688 167.765625 152.777344 167.726562 152.859375 167.714844 C 153.054688 167.667969 153.246094 167.632812 153.441406 167.59375 C 153.558594 167.570312 153.679688 167.546875 153.800781 167.535156 C 153.957031 167.511719 154.125 167.476562 154.285156 167.449219 C 154.417969 167.4375 154.546875 167.402344 154.679688 167.402344 C 154.824219 167.390625 154.96875 167.367188 155.117188 167.367188 C 155.246094 167.34375 155.394531 167.34375 155.523438 167.316406 C 155.671875 167.316406 155.800781 167.304688 155.933594 167.304688 C 156.078125 167.292969 156.222656 167.28125 156.371094 167.28125 C 156.488281 167.28125 156.621094 167.28125 156.753906 167.269531 C 156.898438 167.269531 157.03125 167.269531 157.175781 167.269531 Z M 200.53125 173.769531 C 201.191406 174.589844 201.929688 175.363281 202.722656 176.0625 C 201.953125 176.558594 201.21875 177.097656 200.53125 177.679688 Z M 167.929688 179.308594 C 168.28125 179.886719 168.640625 180.453125 169.015625 181.007812 C 169.558594 181.816406 170.148438 182.613281 170.765625 183.371094 C 167.386719 183.757812 164.242188 184.589844 161.515625 185.953125 L 160.289062 181.355469 Z M 155.851562 182.660156 L 157.464844 188.691406 C 156.464844 189.605469 155.574219 190.65625 154.839844 191.824219 C 154.730469 191.996094 154.632812 192.152344 154.523438 192.320312 C 154.417969 192.539062 154.296875 192.742188 154.1875 192.960938 C 153.886719 193.539062 153.644531 194.128906 153.425781 194.746094 C 151.472656 194.082031 149.4375 193.636719 147.328125 193.429688 L 145.207031 185.507812 Z M 140.707031 186.605469 L 142.515625 193.371094 C 139.972656 193.550781 137.527344 194.105469 135.222656 194.949219 C 135.667969 192.597656 135.984375 190.222656 136.089844 187.847656 Z M 175.632812 187.738281 L 175.816406 187.738281 C 176.203125 187.738281 176.585938 187.75 176.984375 187.75 C 176.996094 187.75 177.007812 187.75 177.03125 187.75 C 177.792969 187.773438 178.578125 187.832031 179.359375 187.894531 C 179.394531 187.90625 179.445312 187.90625 179.492188 187.90625 C 179.867188 187.953125 180.238281 187.992188 180.613281 188.027344 C 180.675781 188.039062 180.734375 188.050781 180.792969 188.050781 C 181.132812 188.085938 181.457031 188.125 181.796875 188.171875 C 181.855469 188.183594 181.914062 188.183594 181.976562 188.183594 C 182.324219 188.230469 182.675781 188.292969 183.035156 188.351562 C 183.144531 188.363281 183.253906 188.402344 183.375 188.414062 C 183.652344 188.460938 183.929688 188.519531 184.21875 188.558594 C 184.328125 188.570312 184.421875 188.605469 184.53125 188.617188 C 184.855469 188.679688 185.171875 188.738281 185.496094 188.824219 C 185.628906 188.847656 185.773438 188.882812 185.90625 188.90625 C 186.183594 188.96875 186.460938 189.027344 186.726562 189.089844 C 186.894531 189.136719 187.0625 189.160156 187.21875 189.207031 C 187.460938 189.269531 187.703125 189.328125 187.945312 189.402344 C 188.101562 189.4375 188.257812 189.472656 188.414062 189.523438 C 188.726562 189.59375 189.039062 189.679688 189.367188 189.789062 C 189.488281 189.824219 189.605469 189.859375 189.738281 189.882812 C 189.980469 189.96875 190.222656 190.027344 190.464844 190.113281 C 190.597656 190.148438 190.730469 190.1875 190.859375 190.234375 C 191.1875 190.332031 191.523438 190.449219 191.851562 190.558594 C 191.957031 190.609375 192.054688 190.621094 192.152344 190.667969 C 192.453125 190.765625 192.753906 190.886719 193.054688 190.992188 C 193.117188 191.007812 193.175781 191.03125 193.234375 191.054688 C 193.621094 191.199219 194.019531 191.34375 194.40625 191.5 C 194.40625 191.5 194.417969 191.5 194.417969 191.511719 C 194.816406 191.667969 195.214844 191.824219 195.609375 191.996094 L 195.625 192.007812 C 196.058594 192.1875 196.503906 192.394531 196.925781 192.585938 C 196.949219 192.597656 196.984375 192.597656 197.023438 192.632812 C 197.035156 192.632812 197.046875 192.632812 197.058594 192.644531 C 197.457031 192.828125 197.855469 193.019531 198.25 193.214844 C 198.347656 193.261719 198.46875 193.320312 198.625 193.40625 L 198.625 193.394531 C 198.9375 193.5625 199.238281 193.707031 199.542969 193.863281 C 199.964844 194.09375 200.375 194.324219 200.769531 194.550781 C 200.808594 194.574219 200.832031 194.601562 200.867188 194.613281 C 201.109375 194.757812 201.335938 194.890625 201.566406 195.023438 C 201.6875 195.105469 201.796875 195.167969 201.917969 195.238281 L 201.917969 195.25 C 201.917969 195.25 201.917969 195.25 201.929688 195.25 C 202.121094 195.371094 202.328125 195.503906 202.519531 195.625 C 202.640625 195.699219 202.773438 195.78125 202.894531 195.867188 C 203.109375 196 203.316406 196.144531 203.53125 196.289062 C 203.738281 196.433594 203.941406 196.566406 204.148438 196.710938 C 204.542969 197 204.941406 197.289062 205.316406 197.589844 C 205.507812 197.734375 205.691406 197.878906 205.871094 198.027344 C 206.425781 198.472656 206.945312 198.917969 207.4375 199.375 C 210.898438 202.574219 213.007812 206.011719 214.058594 209.484375 C 215.371094 213.898438 214.984375 218.457031 213.09375 222.847656 C 213.082031 222.882812 213.054688 222.945312 213.03125 222.980469 C 213.007812 223.027344 212.996094 223.089844 212.960938 223.125 C 212.621094 223.894531 212.238281 224.667969 211.789062 225.417969 C 211.1875 226.476562 210.585938 227.347656 209.863281 228.238281 C 202.207031 228.9375 194.238281 229.300781 186.050781 229.300781 C 182.710938 229.300781 179.40625 229.238281 176.140625 229.117188 C 175.539062 228.671875 175.042969 228.25 174.234375 227.625 C 173.355469 226.949219 172.488281 226.222656 171.644531 225.488281 C 171.476562 225.34375 171.292969 225.175781 171.125 225.03125 L 170.644531 224.570312 C 170.210938 224.1875 169.800781 223.789062 169.390625 223.390625 C 169.316406 223.328125 169.246094 223.246094 169.183594 223.183594 C 169.113281 223.125 169.039062 223.039062 168.96875 222.96875 C 168.800781 222.796875 168.628906 222.628906 168.460938 222.449219 C 168.339844 222.328125 168.230469 222.21875 168.125 222.097656 C 167.929688 221.917969 167.75 221.714844 167.570312 221.507812 C 167.472656 221.410156 167.375 221.304688 167.28125 221.195312 C 167.085938 220.976562 166.894531 220.761719 166.699219 220.554688 C 166.628906 220.472656 166.542969 220.363281 166.472656 220.289062 C 166.242188 220.023438 166.015625 219.757812 165.796875 219.507812 C 165.75 219.433594 165.710938 219.398438 165.664062 219.335938 C 165.460938 219.085938 165.253906 218.84375 165.0625 218.589844 C 165.011719 218.527344 164.964844 218.46875 164.917969 218.421875 C 164.433594 217.816406 163.964844 217.203125 163.519531 216.574219 C 163.507812 216.5625 163.496094 216.527344 163.480469 216.515625 C 163.253906 216.1875 163.023438 215.875 162.808594 215.550781 C 162.226562 214.707031 161.6875 213.847656 161.191406 213.003906 C 160.25 211.402344 159.457031 209.785156 158.828125 208.21875 L 158.839844 208.21875 C 158.191406 206.589844 157.707031 204.996094 157.429688 203.488281 C 157.417969 203.476562 157.417969 203.441406 157.417969 203.429688 C 157.371094 203.210938 157.332031 203.007812 157.308594 202.789062 C 157.070312 201.148438 157.054688 199.59375 157.296875 198.183594 L 157.296875 198.15625 C 157.476562 197.023438 157.816406 195.988281 158.308594 195.011719 C 158.382812 194.867188 158.46875 194.734375 158.539062 194.589844 C 158.636719 194.441406 158.707031 194.296875 158.804688 194.164062 C 161.566406 189.910156 167.824219 187.664062 175.632812 187.6875 Z M 131.257812 189.136719 C 131.015625 191.945312 130.570312 194.78125 129.859375 197.617188 C 122.746094 202.175781 117.863281 209.929688 117.257812 218.832031 C 117.1875 218.820312 117.101562 218.769531 117.019531 218.757812 C 117.007812 218.710938 117.007812 218.675781 116.996094 218.625 L 116.269531 215.949219 L 113.113281 204.164062 L 126.445312 190.136719 C 126.675781 190.199219 126.90625 190.210938 127.144531 190.199219 C 127.21875 190.1875 127.289062 190.1875 127.375 190.171875 C 127.445312 190.160156 127.519531 190.160156 127.589844 190.136719 C 127.605469 190.136719 127.605469 190.136719 127.617188 190.125 Z M 288.226562 195.347656 C 287.5625 196.445312 286.839844 197.507812 286.042969 198.554688 C 285.800781 197.988281 285.535156 197.421875 285.246094 196.878906 L 285.234375 196.867188 C 286.308594 196.386719 287.296875 195.878906 288.226562 195.347656 Z M 144.613281 197.917969 C 144.855469 197.917969 145.085938 197.917969 145.3125 197.929688 C 145.363281 197.929688 145.398438 197.929688 145.433594 197.929688 C 145.617188 197.941406 145.785156 197.953125 145.964844 197.953125 C 146.039062 197.953125 146.109375 197.953125 146.183594 197.964844 C 146.195312 197.964844 146.195312 197.964844 146.195312 197.964844 C 148.414062 198.144531 150.523438 198.6875 152.523438 199.4375 C 152.464844 200.605469 152.511719 201.777344 152.667969 202.96875 C 152.679688 203.152344 152.703125 203.320312 152.726562 203.5 C 152.726562 203.511719 152.742188 203.523438 152.742188 203.523438 C 150.21875 202.332031 147.460938 201.632812 144.613281 201.632812 C 134.125 201.632812 125.566406 210.183594 125.566406 220.675781 C 125.566406 220.941406 125.578125 221.207031 125.589844 221.472656 C 124.3125 221.097656 123.058594 220.722656 121.828125 220.339844 C 121.828125 220.289062 121.828125 220.277344 121.828125 220.242188 C 121.839844 220.167969 121.839844 220.109375 121.839844 220.074219 C 122.058594 211.945312 126.519531 204.914062 133.078125 201.039062 C 133.148438 201.003906 133.222656 200.96875 133.28125 200.90625 C 136.621094 199.003906 140.492188 197.90625 144.613281 197.90625 Z M 291.960938 198.011719 C 286.066406 255.714844 239.578125 294.128906 186.050781 294.128906 C 131.667969 294.128906 86.855469 253.398438 80.429688 200.773438 C 81.539062 202.28125 82.804688 203.742188 84.226562 205.164062 C 90.027344 210.980469 98.222656 216.058594 108.265625 220.3125 C 128.289062 228.792969 155.671875 233.96875 185.894531 233.992188 C 185.941406 233.992188 186.003906 233.992188 186.050781 233.992188 C 216.324219 233.992188 243.773438 229.226562 263.882812 220.207031 C 276.507812 214.5625 286.367188 207.082031 291.960938 198.011719 Z M 193.320312 201.402344 C 192.996094 201.402344 192.667969 201.414062 192.34375 201.4375 C 188.0625 201.742188 183.988281 204.082031 181.6875 208.058594 C 178.023438 214.441406 180.253906 222.652344 186.640625 226.355469 C 193.019531 230.046875 201.253906 227.875 204.917969 221.496094 C 208.582031 215.128906 206.351562 206.914062 199.976562 203.210938 C 197.878906 202.003906 195.585938 201.414062 193.320312 201.414062 Z M 193.066406 205.996094 C 193.488281 205.996094 193.910156 206.023438 194.332031 206.070312 C 195.464844 206.203125 196.601562 206.578125 197.648438 207.191406 C 201.878906 209.640625 203.316406 214.972656 200.902344 219.167969 C 198.492188 223.367188 193.1875 224.777344 188.957031 222.328125 C 184.726562 219.878906 183.289062 214.550781 185.703125 210.351562 C 187.292969 207.601562 190.113281 206.046875 193.066406 205.996094 Z M 144.613281 206.273438 C 148.398438 206.273438 152.015625 207.769531 154.707031 210.414062 C 155.40625 212.078125 156.238281 213.742188 157.199219 215.394531 C 157.683594 216.214844 158.191406 217.035156 158.730469 217.828125 C 158.9375 218.78125 159.035156 219.746094 159.035156 220.710938 C 159.035156 221.703125 158.9375 222.679688 158.746094 223.605469 C 158.550781 224.546875 158.273438 225.453125 157.914062 226.308594 C 157.707031 226.789062 157.476562 227.261719 157.226562 227.707031 C 156.621094 227.648438 156.03125 227.5625 155.429688 227.492188 C 156.199219 221.554688 152.691406 215.804688 146.917969 214.488281 C 146.144531 214.308594 145.363281 214.222656 144.601562 214.222656 C 139.320312 214.175781 134.5 218 133.027344 223.449219 C 132.125 223.234375 131.234375 223.015625 130.351562 222.785156 C 130.242188 222.113281 130.195312 221.410156 130.195312 220.699219 C 130.195312 212.714844 136.621094 206.289062 144.613281 206.289062 Z M 144.542969 218.84375 C 145 218.84375 145.445312 218.914062 145.890625 218.988281 C 149.207031 219.746094 151.367188 223.0625 150.859375 226.851562 C 146.265625 226.175781 141.816406 225.378906 137.539062 224.464844 C 138.550781 221.039062 141.503906 218.832031 144.542969 218.84375 Z M 163.347656 223.800781 C 164.167969 224.714844 165.023438 225.621094 165.90625 226.5 L 165.941406 226.539062 C 166.097656 226.695312 166.265625 226.863281 166.4375 227.019531 C 166.292969 227.539062 166.148438 228.058594 165.976562 228.5625 C 164.6875 228.46875 163.398438 228.347656 162.121094 228.226562 C 162.132812 228.179688 162.15625 228.140625 162.167969 228.105469 C 162.648438 226.960938 163.023438 225.765625 163.277344 224.523438 C 163.335938 224.28125 163.324219 224.027344 163.347656 223.789062 Z M 274.433594 228.285156 C 273.503906 228.285156 272.660156 228.839844 272.300781 229.699219 C 271.179688 232.230469 269.910156 234.703125 268.511719 237.089844 C 266.886719 239.769531 270.960938 242.15625 272.503906 239.429688 C 273.988281 236.898438 275.335938 234.269531 276.53125 231.566406 C 277.230469 230.035156 276.121094 228.285156 274.433594 228.285156 Z M 265.859375 243.039062 C 265.101562 243.023438 264.378906 243.375 263.933594 243.988281 C 262.28125 246.210938 260.496094 248.34375 258.617188 250.382812 C 256.722656 252.421875 254.722656 254.375 252.613281 256.230469 C 244.183594 263.648438 234.082031 269.523438 222.894531 273.550781 C 219.988281 274.601562 221.554688 278.941406 224.460938 277.90625 C 236.15625 273.695312 246.777344 267.53125 255.675781 259.707031 C 257.890625 257.75 260.015625 255.6875 262.003906 253.53125 C 264.003906 251.371094 265.886719 249.117188 267.644531 246.765625 C 268.789062 245.257812 267.753906 243.085938 265.859375 243.039062 Z M 265.859375 243.039062 " fill-opacity="1" fill-rule="nonzero"/></g></svg>